<svg width="131" height="40" viewBox="0 0 131 40" fill="none" xmlns="http://www.w3.org/2000/svg">
<rect x="33" y="5" width="60" height="20" fill="#3498DB"/>
<rect x="3" y="25" width="5" height="15" fill="#3498DB"/>
<rect x="123" y="25" width="5" height="15" fill="#3498DB"/>
<line x1="33.3536" y1="5.35355" x2="5.35355" y2="33.3536" stroke="#8E44AD"/>
<line x1="33.1374" y1="25.4808" x2="5.13736" y2="33.4808" stroke="#8E44AD"/>
<line x1="93.3235" y1="4.61875" x2="126.323" y2="32.6187" stroke="#8E44AD"/>
<line x1="93.1178" y1="24.5141" x2="126.118" y2="32.5141" stroke="#8E44AD"/>
<path d="M10.5 32.5C10.5 35.2614 8.26142 37.5 5.5 37.5C2.73858 37.5 0.5 35.2614 0.5 32.5C0.5 29.7386 2.73858 27.5 5.5 27.5C8.26142 27.5 10.5 29.7386 10.5 32.5Z" fill="#8E44AD"/>
<path d="M38 5C38 7.76142 35.7614 10 33 10C30.2386 10 28 7.76142 28 5C28 2.23858 30.2386 0 33 0C35.7614 0 38 2.23858 38 5Z" fill="#8E44AD"/>
<path d="M38 25C38 27.7614 35.7614 30 33 30C30.2386 30 28 27.7614 28 25C28 22.2386 30.2386 20 33 20C35.7614 20 38 22.2386 38 25Z" fill="#8E44AD"/>
<path d="M98 25C98 27.7614 95.7614 30 93 30C90.2386 30 88 27.7614 88 25C88 22.2386 90.2386 20 93 20C95.7614 20 98 22.2386 98 25Z" fill="#8E44AD"/>
<path d="M98 5C98 7.76142 95.7614 10 93 10C90.2386 10 88 7.76142 88 5C88 2.23858 90.2386 0 93 0C95.7614 0 98 2.23858 98 5Z" fill="#8E44AD"/>
<path d="M130.5 32.5C130.5 35.2614 128.261 37.5 125.5 37.5C122.739 37.5 120.5 35.2614 120.5 32.5C120.5 29.7386 122.739 27.5 125.5 27.5C128.261 27.5 130.5 29.7386 130.5 32.5Z" fill="#8E44AD"/>
</svg>
